<svg id="visual" viewBox="0 0 900 600" xmlns="http://www.w3.org/2000/svg" xmlnsXlink="http://www.w3.org/1999/xlink" version="1.1"><rect x="0" y="0" width="900" height="600" fill="#001220"></rect><defs><linearGradient id="grad1_0" x1="33.3%" y1="0%" x2="100%" y2="100%"><stop offset="20%" stop-color="#001220" stop-opacity="1"></stop><stop offset="80%" stop-color="#001220" stop-opacity="1"></stop></linearGradient></defs><defs><linearGradient id="grad2_0" x1="0%" y1="0%" x2="66.7%" y2="100%"><stop offset="20%" stop-color="#001220" stop-opacity="1"></stop><stop offset="80%" stop-color="#001220" stop-opacity="1"></stop></linearGradient></defs><g transform="translate(900, 0)"><path d="M0 351.5C-34.7 339.7 -69.3 327.9 -101.7 312.9C-134 297.9 -164 279.6 -186.3 256.5C-208.7 233.3 -223.3 205.4 -250 181.6C-276.7 157.8 -315.4 138.2 -334.3 108.6C-353.3 79.1 -352.4 39.5 -351.5 0L0 0Z" fill="#FBAE3C"></path></g><g transform="translate(0, 600)"><path d="M0 -351.5C32.6 -335.4 65.2 -319.3 100.7 -310C136.3 -300.8 174.8 -298.4 204 -280.7C233.2 -263.1 253 -230.2 275.1 -199.8C297.1 -169.5 321.2 -141.5 334.3 -108.6C347.4 -75.7 349.5 -37.9 351.5 0L0 0Z" fill="#FBAE3C"></path></g></svg>
